<mxfile host="65bd71144e" pages="2">
    <diagram name="Page-1" id="i_Yi6Jma4aaA0_Bzgj2X">
        <mxGraphModel dx="935" dy="619" grid="1" gridSize="10" guides="1" tooltips="1" connect="1" arrows="1" fold="1" page="1" pageScale="1" pageWidth="850" pageHeight="1100" math="0" shadow="0">
            <root>
                <mxCell id="0"/>
                <mxCell id="1" parent="0"/>
                <mxCell id="qFOVLf56cI1dCQo1htiY-1" value="Start" style="ellipse;whiteSpace=wrap;html=1;" parent="1" vertex="1">
                    <mxGeometry x="190" y="190" width="105" height="60" as="geometry"/>
                </mxCell>
                <mxCell id="Xw1StFqrdO2Em7xosDSk-4" style="edgeStyle=orthogonalEdgeStyle;rounded=0;orthogonalLoop=1;jettySize=auto;html=1;entryX=0.5;entryY=0;entryDx=0;entryDy=0;" parent="1" source="qFOVLf56cI1dCQo1htiY-2" target="Xw1StFqrdO2Em7xosDSk-1" edge="1">
                    <mxGeometry relative="1" as="geometry"/>
                </mxCell>
                <mxCell id="qFOVLf56cI1dCQo1htiY-2" value="input" style="shape=parallelogram;perimeter=parallelogramPerimeter;whiteSpace=wrap;html=1;fixedSize=1;" parent="1" vertex="1">
                    <mxGeometry x="170.62" y="280" width="143.75" height="50" as="geometry"/>
                </mxCell>
                <mxCell id="yVC3BHQmT9BmIdiIZvcK-2" value="Ya" style="edgeStyle=orthogonalEdgeStyle;rounded=0;orthogonalLoop=1;jettySize=auto;html=1;entryX=0.5;entryY=0;entryDx=0;entryDy=0;" parent="1" source="qFOVLf56cI1dCQo1htiY-3" target="qFOVLf56cI1dCQo1htiY-4" edge="1">
                    <mxGeometry relative="1" as="geometry"/>
                </mxCell>
                <mxCell id="qFOVLf56cI1dCQo1htiY-3" value="IF&amp;nbsp;&lt;br&gt;(str[0] === str[x])" style="rhombus;whiteSpace=wrap;html=1;" parent="1" vertex="1">
                    <mxGeometry x="184.99" y="450" width="115" height="100" as="geometry"/>
                </mxCell>
                <mxCell id="yVC3BHQmT9BmIdiIZvcK-4" style="edgeStyle=orthogonalEdgeStyle;rounded=0;orthogonalLoop=1;jettySize=auto;html=1;entryX=0;entryY=0.5;entryDx=0;entryDy=0;" parent="1" source="qFOVLf56cI1dCQo1htiY-4" target="qFOVLf56cI1dCQo1htiY-5" edge="1">
                    <mxGeometry relative="1" as="geometry"/>
                </mxCell>
                <mxCell id="qFOVLf56cI1dCQo1htiY-4" value="mencetak &lt;br&gt;&quot;palindrom&quot;" style="shape=parallelogram;perimeter=parallelogramPerimeter;whiteSpace=wrap;html=1;fixedSize=1;" parent="1" vertex="1">
                    <mxGeometry x="40" y="580" width="120" height="60" as="geometry"/>
                </mxCell>
                <mxCell id="qFOVLf56cI1dCQo1htiY-5" value="End" style="ellipse;whiteSpace=wrap;html=1;" parent="1" vertex="1">
                    <mxGeometry x="202.5" y="580" width="80" height="60" as="geometry"/>
                </mxCell>
                <mxCell id="yVC3BHQmT9BmIdiIZvcK-3" style="edgeStyle=orthogonalEdgeStyle;rounded=0;orthogonalLoop=1;jettySize=auto;html=1;entryX=1;entryY=0.5;entryDx=0;entryDy=0;" parent="1" source="qFOVLf56cI1dCQo1htiY-9" target="qFOVLf56cI1dCQo1htiY-5" edge="1">
                    <mxGeometry relative="1" as="geometry"/>
                </mxCell>
                <mxCell id="qFOVLf56cI1dCQo1htiY-9" value="mencetak&lt;br&gt;&quot;bukan palindrom&quot;" style="shape=parallelogram;perimeter=parallelogramPerimeter;whiteSpace=wrap;html=1;fixedSize=1;" parent="1" vertex="1">
                    <mxGeometry x="340" y="580" width="120" height="60" as="geometry"/>
                </mxCell>
                <mxCell id="qFOVLf56cI1dCQo1htiY-17" value="&lt;div style=&quot;text-align: justify; line-height: 170%; font-size: 13px;&quot;&gt;&lt;b style=&quot;&quot;&gt;&lt;font style=&quot;font-size: 13px;&quot;&gt;1. Strat&lt;/font&gt;&lt;/b&gt;&lt;/div&gt;&lt;div style=&quot;text-align: justify; line-height: 170%; font-size: 13px;&quot;&gt;&lt;b&gt;&lt;font style=&quot;font-size: 13px;&quot;&gt;&lt;br&gt;&lt;/font&gt;&lt;/b&gt;&lt;/div&gt;&lt;div style=&quot;text-align: justify; line-height: 170%; font-size: 13px;&quot;&gt;&lt;b&gt;&lt;font style=&quot;font-size: 13px;&quot;&gt;2. input / masukan nilai string (&quot;kakak&quot;)&lt;/font&gt;&lt;/b&gt;&lt;/div&gt;&lt;div style=&quot;text-align: justify; line-height: 170%; font-size: 13px;&quot;&gt;&lt;b&gt;&lt;font style=&quot;font-size: 13px;&quot;&gt;&amp;nbsp;&lt;/font&gt;&lt;/b&gt;&lt;/div&gt;&lt;div style=&quot;text-align: justify; line-height: 170%; font-size: 13px;&quot;&gt;&lt;b&gt;&lt;font style=&quot;font-size: 13px;&quot;&gt;3. menyimpan hasil, nilai x=string.lenght-1&lt;/font&gt;&lt;/b&gt;&lt;/div&gt;&lt;div style=&quot;text-align: justify; line-height: 170%; font-size: 13px;&quot;&gt;&lt;b&gt;&lt;font style=&quot;font-size: 13px;&quot;&gt;&lt;br&gt;&lt;/font&gt;&lt;/b&gt;&lt;/div&gt;&lt;div style=&quot;text-align: justify; line-height: 170%; font-size: 13px;&quot;&gt;&lt;b&gt;&lt;font style=&quot;font-size: 13px;&quot;&gt;4. jika string [0] === str [x] (&lt;/font&gt;&lt;/b&gt;&lt;span style=&quot;background-color: initial; font-size: 12px;&quot;&gt;apakah karakter pertama (index 0) dari string sama dengan karakter pada indeks x dalam string&amp;nbsp;&lt;/span&gt;&lt;b style=&quot;background-color: initial;&quot;&gt;)&lt;/b&gt;&lt;/div&gt;&lt;div style=&quot;text-align: justify; line-height: 170%; font-size: 13px;&quot;&gt;&lt;b&gt;&lt;font style=&quot;font-size: 13px;&quot;&gt;&lt;br&gt;&lt;/font&gt;&lt;/b&gt;&lt;/div&gt;&lt;div style=&quot;text-align: justify; line-height: 170%; font-size: 13px;&quot;&gt;&lt;b&gt;&lt;font style=&quot;font-size: 13px;&quot;&gt;5. jika ya , akan mencetak &quot;palindrom&quot;&lt;/font&gt;&lt;/b&gt;&lt;/div&gt;&lt;div style=&quot;text-align: justify; line-height: 170%; font-size: 13px;&quot;&gt;&lt;b&gt;&lt;font style=&quot;font-size: 13px;&quot;&gt;&lt;br&gt;&lt;/font&gt;&lt;/b&gt;&lt;/div&gt;&lt;div style=&quot;text-align: justify; line-height: 170%; font-size: 13px;&quot;&gt;&lt;b&gt;&lt;font style=&quot;font-size: 13px;&quot;&gt;6. jika tidak, akan mencetak &quot;bukan palindrom&quot;&lt;/font&gt;&lt;/b&gt;&lt;/div&gt;&lt;div style=&quot;text-align: justify; line-height: 170%; font-size: 13px;&quot;&gt;&lt;b&gt;&lt;font style=&quot;font-size: 13px;&quot;&gt;&lt;br&gt;&lt;/font&gt;&lt;/b&gt;&lt;/div&gt;&lt;div style=&quot;text-align: justify; line-height: 170%; font-size: 13px;&quot;&gt;&lt;b style=&quot;&quot;&gt;&lt;font style=&quot;font-size: 13px;&quot;&gt;7. End&lt;/font&gt;&lt;/b&gt;&lt;/div&gt;" style="text;html=1;strokeColor=none;fillColor=none;align=center;verticalAlign=middle;whiteSpace=wrap;rounded=0;" parent="1" vertex="1">
                    <mxGeometry x="450" y="180" width="395" height="320" as="geometry"/>
                </mxCell>
                <mxCell id="qFOVLf56cI1dCQo1htiY-18" value="&lt;b&gt;&lt;font style=&quot;font-size: 20px;&quot;&gt;ALIGROTIMA PALINDROM&lt;/font&gt;&lt;/b&gt;" style="text;html=1;strokeColor=none;fillColor=none;align=center;verticalAlign=middle;whiteSpace=wrap;rounded=0;" parent="1" vertex="1">
                    <mxGeometry x="270" width="290" height="100" as="geometry"/>
                </mxCell>
                <mxCell id="qFOVLf56cI1dCQo1htiY-21" value="Flow chart" style="rounded=0;whiteSpace=wrap;html=1;fillColor=#f5f5f5;fontColor=#333333;strokeColor=#666666;" parent="1" vertex="1">
                    <mxGeometry x="175" y="140" width="120" height="20" as="geometry"/>
                </mxCell>
                <mxCell id="qFOVLf56cI1dCQo1htiY-22" value="Deskripsi" style="rounded=0;whiteSpace=wrap;html=1;fillColor=#f5f5f5;gradientColor=#b3b3b3;strokeColor=#666666;" parent="1" vertex="1">
                    <mxGeometry x="450" y="140" width="120" height="20" as="geometry"/>
                </mxCell>
                <mxCell id="Xw1StFqrdO2Em7xosDSk-5" style="edgeStyle=orthogonalEdgeStyle;rounded=0;orthogonalLoop=1;jettySize=auto;html=1;entryX=0.5;entryY=0;entryDx=0;entryDy=0;" parent="1" source="Xw1StFqrdO2Em7xosDSk-1" target="qFOVLf56cI1dCQo1htiY-3" edge="1">
                    <mxGeometry relative="1" as="geometry"/>
                </mxCell>
                <mxCell id="Xw1StFqrdO2Em7xosDSk-1" value="Hasil,&amp;nbsp;&lt;br style=&quot;border-color: var(--border-color);&quot;&gt;nilai x=str.length-1" style="rounded=0;whiteSpace=wrap;html=1;" parent="1" vertex="1">
                    <mxGeometry x="182.49" y="360" width="120" height="60" as="geometry"/>
                </mxCell>
                <mxCell id="Xw1StFqrdO2Em7xosDSk-2" value="" style="endArrow=classic;html=1;rounded=0;exitX=0.5;exitY=1;exitDx=0;exitDy=0;entryX=0.5;entryY=0;entryDx=0;entryDy=0;" parent="1" source="qFOVLf56cI1dCQo1htiY-1" target="qFOVLf56cI1dCQo1htiY-2" edge="1">
                    <mxGeometry width="50" height="50" relative="1" as="geometry">
                        <mxPoint x="400" y="260" as="sourcePoint"/>
                        <mxPoint x="450" y="210" as="targetPoint"/>
                    </mxGeometry>
                </mxCell>
                <mxCell id="yVC3BHQmT9BmIdiIZvcK-1" value="False" style="endArrow=classic;html=1;rounded=0;exitX=1;exitY=0.5;exitDx=0;exitDy=0;entryX=0.583;entryY=0;entryDx=0;entryDy=0;entryPerimeter=0;" parent="1" source="qFOVLf56cI1dCQo1htiY-3" target="qFOVLf56cI1dCQo1htiY-9" edge="1">
                    <mxGeometry width="50" height="50" relative="1" as="geometry">
                        <mxPoint x="400" y="570" as="sourcePoint"/>
                        <mxPoint x="450" y="520" as="targetPoint"/>
                        <Array as="points">
                            <mxPoint x="410" y="500"/>
                        </Array>
                    </mxGeometry>
                </mxCell>
            </root>
        </mxGraphModel>
    </diagram>
    <diagram id="gA90epkc6Zpm2eJLSQ5W" name="Page-2">
        <mxGraphModel dx="935" dy="619" grid="1" gridSize="10" guides="1" tooltips="1" connect="1" arrows="1" fold="1" page="1" pageScale="1" pageWidth="850" pageHeight="1100" math="0" shadow="0">
            <root>
                <mxCell id="0"/>
                <mxCell id="1" parent="0"/>
                <mxCell id="hBHxdi-sckt7vuE4TpFH-2" value="Start" style="ellipse;whiteSpace=wrap;html=1;" parent="1" vertex="1">
                    <mxGeometry x="230" y="230" width="105" height="60" as="geometry"/>
                </mxCell>
                <mxCell id="hBHxdi-sckt7vuE4TpFH-4" value="input" style="shape=parallelogram;perimeter=parallelogramPerimeter;whiteSpace=wrap;html=1;fixedSize=1;" parent="1" vertex="1">
                    <mxGeometry x="210.63" y="320" width="143.75" height="60" as="geometry"/>
                </mxCell>
                <mxCell id="rWiJty_xL9-LKDPO5_8I-3" value="Ya" style="edgeStyle=orthogonalEdgeStyle;rounded=0;orthogonalLoop=1;jettySize=auto;html=1;entryX=0.5;entryY=0;entryDx=0;entryDy=0;" parent="1" source="hBHxdi-sckt7vuE4TpFH-7" target="rWiJty_xL9-LKDPO5_8I-1" edge="1">
                    <mxGeometry relative="1" as="geometry"/>
                </mxCell>
                <mxCell id="rWiJty_xL9-LKDPO5_8I-4" value="False" style="edgeStyle=orthogonalEdgeStyle;rounded=0;orthogonalLoop=1;jettySize=auto;html=1;entryX=1;entryY=0.5;entryDx=0;entryDy=0;exitX=1;exitY=0.5;exitDx=0;exitDy=0;" parent="1" source="hBHxdi-sckt7vuE4TpFH-7" target="hBHxdi-sckt7vuE4TpFH-10" edge="1">
                    <mxGeometry relative="1" as="geometry">
                        <mxPoint x="480" y="740" as="targetPoint"/>
                        <Array as="points">
                            <mxPoint x="420" y="520"/>
                            <mxPoint x="420" y="785"/>
                        </Array>
                    </mxGeometry>
                </mxCell>
                <mxCell id="hBHxdi-sckt7vuE4TpFH-7" value="x = string (&quot;a&quot;)" style="rhombus;whiteSpace=wrap;html=1;" parent="1" vertex="1">
                    <mxGeometry x="228.75" y="480" width="107.51" height="80" as="geometry"/>
                </mxCell>
                <mxCell id="hBHxdi-sckt7vuE4TpFH-10" value="End" style="ellipse;whiteSpace=wrap;html=1;" parent="1" vertex="1">
                    <mxGeometry x="243.43" y="750" width="80" height="70" as="geometry"/>
                </mxCell>
                <mxCell id="hBHxdi-sckt7vuE4TpFH-13" value="&lt;div style=&quot;text-align: justify; line-height: 170%; font-size: 13px;&quot;&gt;&lt;b style=&quot;&quot;&gt;&lt;font style=&quot;font-size: 13px;&quot;&gt;1. Strat&lt;/font&gt;&lt;/b&gt;&lt;/div&gt;&lt;div style=&quot;text-align: justify; line-height: 170%; font-size: 13px;&quot;&gt;&lt;b&gt;&lt;font style=&quot;font-size: 13px;&quot;&gt;2. input nilai string ax&lt;/font&gt;&lt;/b&gt;&lt;/div&gt;&lt;div style=&quot;text-align: justify; line-height: 170%; font-size: 13px;&quot;&gt;&lt;b&gt;&lt;font style=&quot;font-size: 13px;&quot;&gt;3. menyimpan hasil, dan nilai string = string.length&lt;/font&gt;&lt;/b&gt;&lt;/div&gt;&lt;div style=&quot;text-align: justify; line-height: 170%; font-size: 13px;&quot;&gt;&lt;b&gt;&lt;font style=&quot;font-size: 13px;&quot;&gt;4. Apakah nilai x = mempunyai nilai string (&quot;a&quot;)&amp;nbsp;&lt;/font&gt;&lt;/b&gt;&lt;/div&gt;&lt;div style=&quot;text-align: justify; line-height: 170%; font-size: 13px;&quot;&gt;&lt;b&gt;&lt;font style=&quot;font-size: 13px;&quot;&gt;5. jika iya, nilai string (&quot;a&quot;) diganti menjadi o&lt;/font&gt;&lt;/b&gt;&lt;/div&gt;&lt;div style=&quot;text-align: justify; line-height: 170%; font-size: 13px;&quot;&gt;&lt;b&gt;&lt;font style=&quot;font-size: 13px;&quot;&gt;6, maka akan mencetak o&lt;/font&gt;&lt;/b&gt;&lt;/div&gt;&lt;div style=&quot;text-align: justify; line-height: 170%; font-size: 13px;&quot;&gt;&lt;b&gt;&lt;font style=&quot;font-size: 13px;&quot;&gt;7, jika tidak akan mencetak nilai dirinya sendri&lt;/font&gt;&lt;/b&gt;&lt;/div&gt;&lt;div style=&quot;text-align: justify; line-height: 170%; font-size: 13px;&quot;&gt;&lt;b style=&quot;&quot;&gt;&lt;font style=&quot;font-size: 13px;&quot;&gt;8. End&lt;/font&gt;&lt;/b&gt;&lt;/div&gt;" style="text;html=1;strokeColor=none;fillColor=none;align=center;verticalAlign=middle;whiteSpace=wrap;rounded=0;" parent="1" vertex="1">
                    <mxGeometry x="440" y="190" width="390" height="282.5" as="geometry"/>
                </mxCell>
                <mxCell id="hBHxdi-sckt7vuE4TpFH-14" value="&lt;b&gt;&lt;font style=&quot;font-size: 20px;&quot;&gt;ALIGROTIMA UBAH KONSONAN&lt;/font&gt;&lt;/b&gt;" style="text;html=1;strokeColor=none;fillColor=none;align=center;verticalAlign=middle;whiteSpace=wrap;rounded=0;" parent="1" vertex="1">
                    <mxGeometry x="310" y="40" width="290" height="100" as="geometry"/>
                </mxCell>
                <mxCell id="hBHxdi-sckt7vuE4TpFH-15" value="Flow chart" style="rounded=0;whiteSpace=wrap;html=1;fillColor=#f5f5f5;fontColor=#333333;strokeColor=#666666;" parent="1" vertex="1">
                    <mxGeometry x="225" y="180" width="120" height="20" as="geometry"/>
                </mxCell>
                <mxCell id="hBHxdi-sckt7vuE4TpFH-16" value="Deskripsi" style="rounded=0;whiteSpace=wrap;html=1;fillColor=#f5f5f5;gradientColor=#b3b3b3;strokeColor=#666666;" parent="1" vertex="1">
                    <mxGeometry x="480" y="180" width="120" height="20" as="geometry"/>
                </mxCell>
                <mxCell id="rWiJty_xL9-LKDPO5_8I-2" value="" style="edgeStyle=orthogonalEdgeStyle;rounded=0;orthogonalLoop=1;jettySize=auto;html=1;" parent="1" source="yM0f7alwkUoFVqfQFdLZ-1" target="hBHxdi-sckt7vuE4TpFH-7" edge="1">
                    <mxGeometry relative="1" as="geometry"/>
                </mxCell>
                <mxCell id="yM0f7alwkUoFVqfQFdLZ-1" value="hasil,&amp;nbsp; x =&lt;br style=&quot;border-color: var(--border-color);&quot;&gt;string.length" style="rounded=0;whiteSpace=wrap;html=1;" parent="1" vertex="1">
                    <mxGeometry x="222.5" y="400" width="120" height="60" as="geometry"/>
                </mxCell>
                <mxCell id="yM0f7alwkUoFVqfQFdLZ-2" value="" style="endArrow=classic;html=1;rounded=0;exitX=0.5;exitY=1;exitDx=0;exitDy=0;entryX=0.5;entryY=0;entryDx=0;entryDy=0;" parent="1" source="hBHxdi-sckt7vuE4TpFH-2" target="hBHxdi-sckt7vuE4TpFH-4" edge="1">
                    <mxGeometry width="50" height="50" relative="1" as="geometry">
                        <mxPoint x="430" y="460" as="sourcePoint"/>
                        <mxPoint x="480" y="410" as="targetPoint"/>
                    </mxGeometry>
                </mxCell>
                <mxCell id="yM0f7alwkUoFVqfQFdLZ-5" value="" style="endArrow=classic;html=1;rounded=0;exitX=0.5;exitY=1;exitDx=0;exitDy=0;entryX=0.5;entryY=0;entryDx=0;entryDy=0;" parent="1" source="hBHxdi-sckt7vuE4TpFH-4" target="yM0f7alwkUoFVqfQFdLZ-1" edge="1">
                    <mxGeometry width="50" height="50" relative="1" as="geometry">
                        <mxPoint x="320" y="420" as="sourcePoint"/>
                        <mxPoint x="480" y="410" as="targetPoint"/>
                    </mxGeometry>
                </mxCell>
                <mxCell id="rWiJty_xL9-LKDPO5_8I-6" value="" style="edgeStyle=orthogonalEdgeStyle;rounded=0;orthogonalLoop=1;jettySize=auto;html=1;" parent="1" source="rWiJty_xL9-LKDPO5_8I-1" target="rWiJty_xL9-LKDPO5_8I-5" edge="1">
                    <mxGeometry relative="1" as="geometry">
                        <Array as="points">
                            <mxPoint x="283" y="710"/>
                            <mxPoint x="283" y="710"/>
                        </Array>
                    </mxGeometry>
                </mxCell>
                <mxCell id="rWiJty_xL9-LKDPO5_8I-1" value="&lt;br&gt;&lt;div style=&quot;text-align: justify;&quot;&gt;newString = string.replace(/a/g, &quot;o&quot;);&lt;/div&gt;&lt;div style=&quot;text-align: justify;&quot;&gt;&lt;br&gt;&lt;/div&gt;" style="rounded=0;whiteSpace=wrap;html=1;" parent="1" vertex="1">
                    <mxGeometry x="172.5" y="600" width="220" height="60" as="geometry"/>
                </mxCell>
                <mxCell id="rWiJty_xL9-LKDPO5_8I-7" value="" style="edgeStyle=orthogonalEdgeStyle;rounded=0;orthogonalLoop=1;jettySize=auto;html=1;" parent="1" source="rWiJty_xL9-LKDPO5_8I-5" target="hBHxdi-sckt7vuE4TpFH-10" edge="1">
                    <mxGeometry relative="1" as="geometry"/>
                </mxCell>
                <mxCell id="rWiJty_xL9-LKDPO5_8I-5" value="x = string ( &quot;o&quot;)" style="shape=parallelogram;perimeter=parallelogramPerimeter;whiteSpace=wrap;html=1;fixedSize=1;" parent="1" vertex="1">
                    <mxGeometry x="228.75" y="690" width="109.37" height="40" as="geometry"/>
                </mxCell>
            </root>
        </mxGraphModel>
    </diagram>
</mxfile>